<?xml version="1.0" standalone="no"?>
<!DOCTYPE svg PUBLIC "-//W3C//DTD SVG 20010904//EN"
 "http://www.w3.org/TR/2001/REC-SVG-20010904/DTD/svg10.dtd">
<svg version="1.0" xmlns="http://www.w3.org/2000/svg"
 width="468pt" height="89pt" viewBox="0 0 468 89"
 preserveAspectRatio="xMidYMid meet">
<metadata>
Created by POTRACE VERSION, written by Peter Selinger 2001-2007
</metadata>
<g transform="translate(0,89) scale(0.038392,-0.038392)"
fill="#000000" stroke="none">
<path d="M877 2262 c-10 -4 -31 -34 -48 -67 l-30 -60 6 -217 c3 -120 10 -229
15 -244 6 -14 10 -30 10 -35 0 -5 -11 -9 -25 -9 -14 0 -34 -9 -45 -20 -11 -11
-20 -29 -20 -40 0 -10 -12 -31 -27 -45 -25 -23 -27 -27 -14 -47 10 -16 10 -23
2 -26 -6 -2 -11 -8 -11 -13 0 -5 -19 -41 -42 -80 -23 -38 -46 -68 -52 -66 -7
3 -10 26 -9 57 2 29 9 63 18 76 8 13 15 30 15 38 0 8 6 27 14 43 8 15 22 45
31 67 14 32 15 40 4 47 -8 5 -26 9 -40 9 -15 0 -41 -14 -62 -33 -20 -18 -37
-40 -37 -49 0 -9 -11 -38 -24 -65 -13 -26 -32 -66 -42 -88 -10 -22 -18 -61
-18 -87 0 -36 6 -54 24 -73 13 -14 29 -25 36 -25 7 0 16 -5 19 -10 4 -6 -10
-32 -29 -59 -20 -27 -36 -53 -36 -58 0 -6 -10 -21 -23 -34 -13 -13 -42 -49
-65 -80 -22 -31 -63 -82 -91 -114 -28 -32 -51 -61 -51 -65 0 -4 -15 -22 -32
-41 -18 -19 -44 -48 -56 -64 -13 -17 -35 -47 -49 -67 -14 -21 -29 -38 -33 -38
-4 0 -19 -22 -33 -49 -26 -48 -26 -48 -7 -66 13 -12 27 -15 44 -11 14 3 36 18
50 32 13 15 30 38 38 53 7 14 16 31 21 36 4 6 32 42 63 80 31 39 71 87 88 109
17 21 43 53 59 70 15 17 27 34 27 38 0 4 13 20 28 35 16 16 64 82 107 148 43
66 79 121 80 123 1 1 48 5 105 7 57 3 108 9 114 14 6 4 29 11 51 14 22 4 53
10 69 13 l29 7 -36 -39 c-20 -21 -60 -65 -90 -96 -29 -32 -67 -74 -83 -94 -16
-20 -40 -48 -54 -63 -14 -15 -43 -49 -65 -76 -22 -28 -48 -59 -57 -69 -10 -11
-18 -23 -18 -28 0 -5 -20 -33 -45 -64 -25 -31 -68 -103 -96 -160 -28 -57 -49
-111 -46 -119 5 -11 18 -13 59 -8 29 4 80 19 113 35 33 16 80 42 105 56 25 15
69 38 97 51 29 14 56 21 60 18 3 -4 -6 -29 -21 -57 -19 -35 -26 -61 -24 -87
l3 -38 59 -3 c39 -2 70 2 94 14 19 9 56 29 81 45 25 16 69 52 98 80 29 28 53
59 53 69 0 10 7 23 15 30 8 7 15 23 15 37 0 13 7 37 15 52 8 16 22 31 30 35 9
3 40 6 68 6 29 0 76 -3 105 -7 41 -4 57 -11 69 -30 14 -22 14 -27 -3 -60 -11
-19 -39 -55 -64 -80 -24 -24 -52 -56 -62 -71 -10 -15 -18 -37 -18 -49 0 -21 5
-23 48 -23 37 0 54 6 78 28 18 15 57 64 88 107 31 44 71 98 89 120 18 21 48
54 67 72 19 18 41 33 48 33 7 0 12 -14 12 -35 0 -22 8 -43 20 -55 13 -13 33
-20 59 -20 22 0 43 5 46 10 3 6 19 10 36 10 18 0 29 -5 29 -14 0 -8 -7 -16
-15 -20 -8 -3 -15 -12 -15 -20 0 -9 -9 -20 -20 -26 -10 -6 -26 -25 -34 -43 -8
-17 -17 -53 -21 -78 -4 -32 -2 -49 7 -57 8 -6 36 -9 63 -8 28 2 63 8 78 15 16
6 35 11 43 11 8 0 22 4 32 10 9 5 35 17 57 27 22 10 62 32 88 50 27 18 54 33
61 33 7 0 22 8 35 18 13 9 34 26 46 38 13 12 30 24 38 27 8 3 18 3 21 0 3 -3
-9 -24 -27 -46 -18 -23 -38 -48 -45 -55 -7 -8 -24 -29 -38 -48 -15 -18 -24
-40 -21 -48 4 -11 16 -13 44 -10 21 3 52 12 68 19 17 8 44 28 60 45 17 17 49
45 73 61 24 16 45 29 48 29 3 0 21 12 39 26 19 14 41 24 51 22 13 -2 11 -8
-12 -33 -16 -17 -37 -42 -46 -57 -10 -15 -18 -34 -18 -41 0 -8 9 -22 20 -32
16 -15 30 -17 82 -11 35 4 95 16 133 27 39 11 83 27 98 35 16 8 33 14 38 14 5
0 9 -18 9 -39 0 -32 6 -44 31 -65 17 -14 38 -26 48 -26 9 0 22 -5 29 -12 8 -8
49 -12 115 -13 61 0 114 5 128 12 13 6 54 19 90 27 36 9 73 16 82 16 9 0 17
-4 17 -10 0 -5 12 -16 28 -23 15 -8 50 -17 77 -21 28 -3 84 -2 125 3 41 5 102
15 135 22 33 6 69 15 80 19 11 4 52 16 90 25 39 9 100 29 137 43 38 15 68 32
68 38 0 7 6 24 14 39 13 25 12 31 -7 61 -16 25 -29 34 -49 34 -16 0 -28 -5
-28 -11 0 -6 11 -20 24 -32 l24 -21 -44 -43 c-23 -24 -51 -43 -62 -43 -10 0
-22 -4 -27 -8 -6 -5 -30 -16 -55 -25 -25 -9 -81 -23 -125 -32 -49 -10 -98 -14
-127 -10 -26 4 -55 2 -65 -4 -13 -7 -33 -6 -64 1 -24 6 -50 18 -56 26 -9 11
-10 19 -2 29 6 7 19 13 29 13 10 0 23 7 30 15 7 8 19 15 26 15 7 0 30 9 51 21
21 12 44 26 51 31 6 6 12 16 12 22 0 6 -13 26 -30 44 -28 31 -32 32 -81 26
-31 -4 -70 -19 -99 -38 -35 -23 -57 -48 -81 -93 -19 -34 -45 -68 -59 -75 -14
-7 -32 -18 -41 -26 -11 -8 -49 -13 -110 -14 -52 -1 -116 2 -142 7 -34 5 -53
15 -64 32 -14 22 -14 27 2 62 9 22 37 58 61 82 44 43 44 43 118 44 63 0 77 3
90 20 8 11 17 27 19 36 3 9 -14 40 -37 69 -39 48 -43 51 -79 47 -32 -4 -52
-20 -135 -105 -53 -55 -111 -107 -129 -116 -18 -9 -38 -16 -46 -16 -7 0 -37
-11 -65 -25 -29 -14 -58 -25 -66 -25 -8 0 -17 -4 -21 -9 -3 -6 -26 -13 -51
-17 -25 -3 -48 -3 -52 0 -3 4 -2 10 3 14 6 4 36 37 68 73 31 36 57 73 57 81 0
9 -6 21 -13 27 -8 6 -34 9 -62 6 -26 -3 -65 -10 -87 -15 -21 -6 -38 -14 -38
-18 0 -5 -15 -13 -33 -20 -18 -7 -36 -12 -39 -12 -3 0 -4 9 -1 20 3 11 -2 31
-11 45 -9 14 -23 25 -32 25 -8 0 -44 -10 -80 -21 -51 -17 -79 -34 -123 -75
-31 -30 -84 -70 -118 -90 -34 -19 -95 -46 -135 -60 -40 -14 -83 -28 -95 -31
-14 -3 -23 -1 -23 6 0 7 5 22 12 34 6 12 18 27 27 34 9 7 25 13 36 13 11 0 47
14 80 31 33 17 80 46 105 64 25 18 55 47 68 64 12 16 22 36 22 43 0 7 -12 21
-26 31 -19 14 -34 17 -62 12 -20 -3 -62 -17 -92 -31 -30 -14 -70 -37 -89 -51
-22 -17 -51 -28 -81 -31 -32 -3 -50 0 -55 8 -5 7 -7 44 -6 81 2 62 0 71 -23
94 -17 17 -36 25 -58 25 -28 0 -46 -12 -115 -81 l-82 -80 -46 15 c-25 9 -59
16 -75 16 -16 0 -35 -7 -44 -15 -8 -9 -33 -15 -59 -15 -24 0 -65 3 -90 6 -39
6 -49 12 -59 35 -7 16 -21 32 -31 35 -9 3 -31 3 -47 -1 -17 -4 -53 -22 -80
-40 -27 -18 -71 -44 -97 -57 -27 -13 -49 -26 -51 -30 -2 -5 -10 -8 -17 -8 -8
0 -20 -6 -27 -13 -7 -8 -63 -38 -123 -68 -61 -29 -112 -56 -115 -59 -3 -3 -28
-20 -57 -38 -29 -17 -55 -27 -58 -22 -3 5 1 27 8 49 8 22 38 73 68 113 30 40
57 78 61 83 4 6 26 30 48 55 22 25 40 49 40 53 0 4 42 51 93 104 50 53 110
115 132 138 22 23 63 67 90 99 28 32 68 70 89 85 21 14 57 38 80 53 23 14 54
37 69 50 16 13 37 32 48 42 10 11 19 25 19 32 0 6 11 19 25 28 14 9 25 23 25
31 0 8 5 15 10 15 6 0 10 9 10 19 0 10 -7 22 -16 25 -8 3 -33 3 -55 0 -21 -4
-39 -10 -39 -14 0 -4 -11 -12 -24 -18 -14 -6 -46 -31 -73 -56 -26 -25 -85 -79
-131 -120 -69 -63 -89 -76 -116 -76 -20 0 -36 -6 -39 -14 -3 -8 -14 -15 -24
-15 -10 0 -38 -4 -63 -10 -25 -6 -77 -10 -117 -11 -69 0 -71 1 -66 23 4 12 22
43 42 68 20 26 54 75 75 110 l39 64 14 -50 c8 -28 18 -72 21 -99 6 -46 10 -50
40 -58 21 -6 38 -5 45 1 8 6 10 33 5 88 -3 43 -14 107 -23 143 -9 36 -21 87
-26 115 -4 27 -13 61 -18 75 -5 14 -12 74 -15 134 -3 68 -9 112 -17 116 -8 5
-9 22 -5 52 5 34 3 48 -9 58 -9 7 -15 29 -15 52 0 29 7 45 26 63 15 14 36 25
48 25 12 0 39 -12 61 -27 22 -14 64 -51 94 -82 29 -30 67 -75 84 -100 16 -24
56 -70 88 -102 32 -32 76 -67 98 -78 22 -12 42 -25 46 -31 3 -5 16 -10 29 -10
12 0 26 -4 32 -10 5 -5 43 -14 84 -19 41 -5 89 -13 105 -17 17 -4 93 -8 170
-7 95 0 164 5 215 17 41 9 99 23 128 31 33 9 72 30 100 54 26 21 54 52 63 68
9 15 17 53 18 83 1 39 -4 63 -16 82 -10 14 -32 37 -48 50 -16 12 -52 31 -79
40 -28 10 -77 18 -111 18 -33 0 -67 -4 -75 -10 -13 -8 -13 -10 0 -14 8 -3 35
-7 60 -9 25 -3 63 -11 85 -19 31 -12 45 -25 64 -62 19 -37 22 -55 16 -92 -4
-29 -17 -57 -37 -79 -16 -19 -42 -41 -56 -49 -15 -8 -40 -21 -57 -29 -16 -8
-53 -22 -81 -31 -39 -12 -91 -16 -215 -16 -145 0 -169 2 -202 20 -20 11 -42
20 -48 20 -6 0 -40 15 -76 32 -35 18 -84 51 -107 73 -23 22 -60 65 -81 95 -21
30 -50 68 -64 84 -14 16 -43 45 -63 64 -21 19 -46 40 -56 46 -11 6 -38 21 -60
34 -28 14 -57 22 -89 21 -26 0 -56 -4 -66 -7z m1312 -1509 c-8 -9 -32 -29 -53
-45 -21 -15 -44 -28 -50 -28 -5 0 10 20 34 45 24 25 53 45 63 45 17 0 18 -2 6
-17z m-1078 -80 c-5 -10 -12 -25 -15 -33 -3 -8 -12 -24 -18 -34 -7 -11 -31
-37 -52 -58 -22 -21 -43 -38 -47 -38 -4 0 -14 -6 -21 -12 -8 -7 -24 -19 -36
-26 -14 -7 -22 -8 -22 -2 0 6 11 28 25 49 13 22 44 59 67 83 24 24 61 56 82
71 22 14 42 25 44 23 2 -2 -1 -12 -7 -23z m2599 -29 c0 -4 -8 -13 -17 -20 -10
-7 -26 -14 -37 -14 -16 0 -15 2 5 20 13 10 30 19 37 20 6 0 12 -3 12 -6z"/>
<path d="M5905 2146 c-33 -13 -86 -34 -118 -47 -32 -13 -99 -55 -149 -94 -50
-38 -120 -99 -155 -135 -36 -36 -92 -101 -125 -145 -33 -44 -77 -113 -98 -153
-21 -40 -45 -91 -53 -115 -9 -23 -23 -68 -32 -99 -9 -32 -21 -60 -26 -64 -5
-3 -9 -14 -9 -24 0 -11 12 -31 27 -45 15 -14 33 -25 40 -25 8 0 13 12 13 29 0
17 4 32 9 35 5 4 12 24 16 46 4 22 11 42 16 46 5 3 9 16 9 29 0 13 6 28 13 32
8 4 19 22 25 38 6 17 21 55 34 85 13 30 33 65 46 78 12 12 22 28 22 35 0 7 16
32 35 54 19 23 35 44 35 48 0 4 21 30 48 58 26 28 63 67 82 87 20 19 57 51 83
70 26 19 59 45 73 58 14 12 32 22 40 22 8 0 37 11 66 25 28 13 65 27 82 30 17
3 37 1 45 -4 11 -7 11 -15 1 -47 -7 -22 -26 -64 -43 -94 -17 -30 -50 -86 -75
-125 -25 -38 -56 -81 -70 -95 -13 -14 -28 -34 -32 -45 -5 -11 -47 -66 -94
-122 -47 -56 -86 -106 -86 -110 0 -5 -12 -16 -27 -26 -16 -9 -44 -30 -63 -48
-19 -17 -47 -41 -61 -54 -15 -12 -29 -31 -31 -41 -2 -10 -18 -26 -36 -35 -18
-8 -48 -32 -67 -52 -18 -20 -37 -46 -40 -58 -4 -11 -23 -38 -44 -59 -20 -21
-43 -51 -51 -66 -8 -16 -30 -48 -50 -70 -19 -23 -61 -81 -92 -130 -31 -49 -65
-98 -75 -109 -10 -11 -32 -38 -50 -60 -17 -22 -33 -49 -35 -60 -3 -17 3 -20
44 -23 42 -3 51 1 74 25 15 15 37 44 49 64 13 20 29 42 37 50 7 8 31 36 53 63
22 28 53 64 70 81 16 18 44 50 61 71 18 21 48 59 68 84 20 25 54 63 75 85 21
22 53 60 72 85 19 24 43 54 54 66 11 12 52 61 90 108 39 46 77 85 85 85 8 1
26 11 40 24 14 12 36 27 50 33 14 6 54 26 90 44 36 18 93 48 127 66 33 18 86
39 116 46 34 9 62 11 71 6 9 -5 16 -18 16 -29 0 -11 -14 -46 -31 -77 -18 -31
-54 -88 -82 -127 -28 -38 -53 -72 -56 -75 -4 -3 -22 -25 -41 -50 -19 -25 -37
-47 -40 -50 -3 -3 -19 -21 -35 -41 -17 -20 -38 -47 -47 -60 -9 -13 -34 -47
-55 -75 -21 -28 -68 -85 -105 -126 -38 -41 -92 -108 -121 -149 -29 -41 -63
-95 -75 -120 -12 -25 -22 -55 -22 -67 0 -12 12 -33 27 -47 15 -14 43 -28 62
-31 18 -4 64 -4 101 -1 40 3 86 15 112 28 23 12 74 42 112 68 37 25 84 56 104
67 20 12 38 27 40 33 2 6 8 11 14 11 6 0 6 -6 -2 -15 -6 -8 -20 -29 -29 -47
-10 -18 -29 -54 -44 -80 -15 -26 -27 -62 -27 -81 0 -19 7 -40 15 -47 11 -9 45
-11 123 -7 59 3 121 11 137 18 17 8 45 24 64 36 19 13 41 23 51 23 9 0 26 8
36 18 10 9 24 26 30 37 6 11 23 21 38 23 14 2 26 0 26 -4 0 -4 -5 -22 -12 -40
-10 -30 -9 -36 16 -69 l28 -37 67 5 c36 3 85 9 108 14 23 6 45 8 47 6 3 -3
-48 -64 -112 -137 -64 -72 -123 -140 -130 -151 -6 -11 -26 -40 -42 -65 -16
-25 -30 -49 -30 -55 0 -5 4 -16 8 -23 7 -10 22 -11 67 -4 36 6 61 16 67 26 5
9 26 25 46 35 20 11 54 35 75 54 26 22 38 41 35 53 -3 13 -11 18 -28 16 -13
-1 -27 -8 -32 -14 -4 -7 -9 -10 -12 -7 -3 2 11 25 30 49 19 25 47 59 62 75 16
17 42 48 58 70 16 21 57 67 92 102 34 34 62 69 62 76 0 8 7 20 15 27 8 7 15
21 15 32 0 11 -8 22 -19 25 -18 4 -17 8 12 50 18 25 38 54 44 66 7 12 13 36
13 52 0 17 -4 35 -8 40 -4 6 -17 18 -28 28 -20 16 -29 17 -83 7 -33 -6 -84
-23 -113 -37 -29 -15 -75 -44 -103 -65 -27 -21 -76 -61 -107 -89 -31 -28 -69
-58 -84 -65 -15 -8 -35 -12 -45 -9 -11 4 -25 -2 -36 -14 -10 -12 -22 -21 -28
-21 -5 0 -26 -15 -45 -34 -21 -19 -50 -36 -70 -39 -19 -3 -69 -12 -110 -21
-41 -9 -78 -16 -82 -16 -5 0 -8 13 -8 29 0 15 18 64 40 107 23 43 44 81 48 84
4 3 14 19 23 35 8 17 14 38 12 47 -3 9 -13 20 -24 23 -11 4 -33 4 -49 0 -16
-4 -47 -24 -67 -46 -20 -21 -42 -39 -48 -39 -6 0 -27 -15 -46 -32 -20 -18 -46
-41 -57 -50 -12 -10 -40 -29 -62 -43 -23 -14 -65 -31 -93 -36 -38 -8 -65 -8
-95 1 -24 6 -45 17 -48 25 -3 8 1 27 9 42 8 15 28 54 45 86 16 32 55 86 86
120 30 34 105 123 166 197 62 74 125 151 140 170 15 19 49 61 74 92 25 32 46
62 46 66 0 5 10 17 22 28 11 10 40 48 64 84 23 36 45 83 49 103 4 20 4 48 1
62 -3 13 -16 30 -27 36 -12 6 -40 14 -63 16 -22 3 -50 5 -61 5 -11 0 -42 -5
-70 -11 -27 -6 -54 -16 -59 -21 -6 -6 -17 -10 -25 -10 -8 0 -29 -11 -47 -25
-18 -14 -37 -25 -43 -25 -5 0 -31 -11 -57 -25 -26 -14 -54 -25 -63 -25 -14 1
-14 2 2 11 9 5 17 15 17 22 0 7 13 27 28 45 15 18 37 45 50 61 12 16 22 34 22
39 0 5 7 16 16 23 9 7 34 40 56 74 21 33 50 85 64 115 14 30 29 63 34 72 6 10
10 27 10 39 0 11 -4 28 -10 38 -5 10 -22 23 -37 29 -15 6 -46 13 -68 15 -27 4
-59 -2 -100 -17z m1052 -1292 c3 -8 -3 -31 -13 -50 -11 -20 -46 -63 -79 -98
-33 -34 -84 -87 -113 -119 -49 -52 -57 -57 -96 -57 -27 0 -48 6 -56 15 -10 12
-10 19 -2 27 7 7 12 19 12 29 0 9 27 45 60 81 33 36 74 73 92 82 18 9 61 37
96 61 35 25 70 45 78 45 8 0 17 -7 21 -16z"/>
<path d="M7768 1469 c-10 -17 -18 -39 -18 -49 0 -10 -4 -21 -9 -24 -4 -3 -11
-18 -14 -33 -3 -16 -27 -55 -52 -88 -26 -33 -67 -87 -92 -120 -24 -33 -58 -71
-75 -84 -17 -14 -50 -51 -74 -83 -24 -33 -66 -80 -94 -105 -28 -25 -57 -58
-65 -73 -8 -16 -36 -51 -63 -78 -27 -28 -55 -65 -62 -82 -12 -30 -12 -34 6
-47 13 -10 34 -13 68 -9 31 3 58 13 70 26 12 11 44 37 71 58 28 21 65 47 83
57 17 11 32 22 32 26 0 4 11 10 25 13 14 4 25 11 25 16 0 6 4 10 9 10 5 0 -8
-36 -30 -79 -21 -44 -39 -93 -39 -109 0 -16 8 -36 18 -45 12 -11 36 -17 65
-17 25 0 59 5 74 12 15 6 35 17 43 24 8 7 47 24 85 38 39 15 79 30 90 35 11 5
35 15 53 21 18 7 35 10 39 7 3 -4 -2 -18 -11 -31 -9 -14 -16 -39 -16 -55 0
-16 7 -37 16 -46 13 -13 28 -15 73 -9 33 4 83 20 121 40 36 18 77 36 93 40 15
3 31 11 35 18 4 6 17 17 29 24 13 6 30 12 38 12 8 0 15 -2 15 -3 0 -2 -8 -29
-18 -59 -12 -35 -16 -63 -10 -77 4 -12 14 -24 22 -27 9 -3 39 2 68 12 28 9 86
35 127 57 42 22 87 50 101 61 14 12 35 27 48 34 12 7 45 17 72 22 28 5 57 7
65 4 8 -4 15 -14 15 -24 0 -11 -29 -45 -65 -77 -36 -32 -65 -64 -65 -70 0 -9
16 -13 48 -13 27 0 63 7 79 15 17 9 36 22 43 30 7 8 16 13 20 10 4 -3 43 8 87
24 44 16 88 33 99 39 10 6 30 13 44 16 14 3 35 14 47 26 12 11 24 16 27 12 3
-5 -6 -25 -19 -45 -14 -20 -25 -42 -25 -50 0 -8 9 -22 21 -33 17 -16 36 -19
108 -19 50 0 100 6 121 14 19 8 51 20 70 28 19 8 60 27 91 43 31 17 63 30 70
30 8 0 19 -8 26 -18 6 -11 31 -24 55 -31 23 -6 61 -10 83 -7 22 2 59 7 82 10
37 5 41 3 36 -12 -4 -9 -25 -39 -47 -67 -23 -27 -61 -72 -86 -98 -25 -27 -81
-86 -125 -131 -44 -45 -102 -109 -128 -142 -26 -32 -50 -69 -53 -81 -4 -13 -4
-30 0 -38 4 -11 22 -15 69 -15 45 0 68 5 77 15 7 8 21 15 31 15 10 0 22 6 26
13 4 6 18 18 30 25 13 6 30 12 39 12 9 0 40 15 68 34 28 19 72 54 99 78 26 24
47 49 47 55 0 6 -7 13 -15 17 -8 3 -21 -1 -29 -9 -8 -8 -17 -15 -21 -15 -3 0
-20 -12 -37 -27 -16 -16 -43 -40 -58 -55 -15 -16 -33 -28 -40 -28 -7 0 -26
-10 -43 -22 -18 -12 -34 -25 -37 -30 -3 -4 -25 -10 -48 -14 -27 -4 -42 -3 -42
4 0 6 3 12 8 14 4 1 38 39 77 83 38 44 81 92 95 106 14 14 44 46 68 72 23 25
50 52 60 59 10 7 41 42 70 78 29 36 58 72 66 80 7 8 21 29 30 47 9 18 16 43
16 57 0 14 -8 30 -17 35 -12 7 -14 13 -8 18 6 5 24 26 40 48 17 22 38 54 48
72 9 17 17 45 17 62 0 20 -7 34 -20 41 -11 6 -40 11 -63 12 -23 0 -67 -5 -97
-12 -30 -6 -59 -16 -64 -21 -6 -5 -21 -9 -33 -9 -13 0 -40 -9 -61 -19 -20 -10
-54 -35 -74 -55 -21 -21 -38 -41 -38 -46 0 -6 -4 -10 -10 -10 -5 0 -10 6 -10
14 0 7 6 18 13 24 7 6 12 33 12 64 l0 53 -35 -3 c-19 -2 -39 -8 -44 -12 -5 -5
-8 -39 -7 -77 1 -37 -4 -89 -10 -115 -7 -27 -24 -58 -38 -71 -14 -13 -55 -36
-91 -52 -52 -23 -80 -29 -140 -29 -70 -1 -75 0 -72 19 2 11 14 37 28 57 13 21
24 46 24 56 0 10 -5 23 -12 30 -7 7 -31 12 -55 12 -28 0 -56 -8 -81 -24 -20
-12 -64 -35 -97 -50 -33 -15 -81 -39 -107 -52 -28 -15 -48 -20 -48 -14 0 6 5
20 10 31 7 13 7 25 1 38 -8 14 -25 20 -63 23 -29 2 -62 1 -73 -3 -11 -3 -47
-9 -80 -12 -33 -4 -70 -8 -82 -11 -12 -3 -39 -14 -60 -25 -21 -11 -45 -23 -53
-26 -8 -3 -28 -14 -45 -24 -16 -11 -33 -20 -37 -20 -5 -1 -8 4 -8 10 0 6 11
25 25 43 14 18 25 38 25 45 0 6 7 23 16 36 9 14 13 33 9 45 -5 16 -15 20 -52
20 -38 0 -53 -7 -95 -40 -28 -22 -55 -40 -59 -40 -5 0 -9 -6 -9 -14 0 -8 -7
-17 -16 -20 -9 -3 -22 -6 -30 -6 -8 0 -31 -11 -52 -25 -20 -13 -53 -28 -72
-31 -19 -4 -46 -13 -60 -21 -14 -7 -31 -13 -38 -13 -10 0 -12 9 -6 32 3 18 14
44 23 57 9 14 26 35 38 48 13 12 23 28 23 36 0 8 34 50 75 93 41 43 75 82 75
87 0 4 16 15 36 24 24 12 37 26 41 44 2 14 17 33 31 41 17 9 68 18 132 22 58
4 159 10 225 14 66 4 248 6 405 4 157 -1 328 -5 380 -8 62 -3 100 -10 111 -19
8 -8 25 -15 37 -15 11 0 23 4 27 9 3 5 -12 15 -32 22 -21 7 -45 14 -53 16 -8
2 -130 5 -270 8 -140 2 -374 7 -520 11 -146 4 -276 7 -290 8 -14 0 -43 -3 -65
-6 -22 -4 -34 -5 -27 -2 6 3 12 11 12 18 0 7 11 23 25 36 15 14 25 35 25 51 0
24 -5 28 -42 34 -41 7 -43 6 -98 -51 -31 -33 -61 -67 -66 -77 -8 -14 -27 -18
-104 -21 -52 -2 -96 -4 -97 -5 -2 -1 -3 -5 -3 -11 0 -5 5 -10 11 -10 7 0 17
-7 24 -16 6 -9 32 -18 58 -21 l46 -5 -44 -47 c-24 -25 -54 -59 -67 -76 -12
-16 -26 -31 -30 -33 -5 -2 -8 -9 -8 -16 0 -6 -19 -28 -43 -47 -23 -20 -75 -55
-115 -77 -41 -23 -80 -42 -87 -42 -8 0 -40 -17 -72 -38 -32 -21 -80 -44 -106
-52 -26 -7 -50 -10 -53 -8 -3 3 13 32 35 63 23 32 41 64 41 72 0 8 7 25 16 38
9 14 14 35 11 47 -4 16 -19 27 -46 35 -31 10 -51 10 -91 1 -28 -6 -61 -21 -73
-33 -12 -11 -39 -34 -61 -50 -21 -17 -52 -40 -69 -52 -17 -13 -35 -23 -39 -23
-4 0 -8 6 -8 14 0 8 12 24 26 37 14 13 40 43 59 67 19 24 73 86 122 139 48 52
99 105 112 117 13 11 35 31 47 44 13 13 24 29 24 37 0 7 9 17 20 20 11 3 20
10 20 15 0 5 12 22 28 38 15 15 44 51 65 79 20 28 44 67 52 87 8 19 15 49 15
66 0 30 -1 30 -52 30 -49 0 -54 -3 -70 -31z m2282 -564 c0 -8 -4 -15 -9 -15
-5 0 -14 -14 -22 -32 -7 -17 -37 -58 -67 -90 -44 -47 -60 -58 -86 -58 -18 0
-37 5 -43 11 -8 8 -14 5 -23 -12 -11 -19 -10 -24 6 -36 16 -12 14 -13 -18 -13
-29 0 -35 3 -33 18 2 9 6 29 9 43 3 15 22 47 42 70 19 24 54 59 77 76 23 18
53 33 67 33 14 0 32 5 40 10 8 5 25 10 38 10 13 0 22 -6 22 -15z"/>
<path d="M9075 1446 l-30 -14 37 -7 c21 -4 42 -13 49 -21 8 -10 7 -21 -5 -45
-9 -18 -16 -36 -16 -40 0 -5 9 -13 20 -19 15 -8 27 -7 47 4 16 8 38 28 51 45
12 16 22 39 22 51 0 14 -7 20 -22 20 -12 0 -29 7 -38 15 -10 9 -33 18 -51 20
-19 2 -47 -2 -64 -9z"/>
<path d="M11525 1290 c-22 -11 -52 -31 -67 -45 -15 -14 -31 -25 -35 -25 -5 0
-19 -14 -33 -31 -14 -17 -59 -65 -100 -107 -42 -42 -91 -97 -110 -122 -19 -25
-37 -47 -40 -50 -3 -3 -12 -18 -20 -34 -8 -16 -26 -33 -40 -39 -14 -6 -42 -22
-62 -34 -21 -13 -44 -23 -52 -23 -7 0 -19 -7 -26 -15 -7 -8 -20 -15 -29 -15
-10 0 -35 -9 -57 -19 -22 -11 -52 -23 -67 -26 -15 -4 -30 -11 -33 -16 -3 -5
-24 -9 -48 -9 -23 0 -47 -5 -54 -12 -9 -9 -15 -9 -24 1 -11 10 -4 20 35 53 26
22 47 45 47 52 0 6 9 17 20 24 11 7 20 23 20 36 0 13 -6 26 -14 29 -9 3 -12
15 -9 31 3 15 -2 37 -11 51 -15 22 -23 25 -82 25 -41 0 -80 -6 -102 -17 -21
-9 -53 -28 -72 -42 -19 -14 -61 -52 -92 -86 -32 -33 -65 -74 -73 -92 -8 -17
-15 -42 -15 -55 0 -14 8 -32 18 -41 14 -13 38 -17 90 -17 40 0 81 6 92 12 16
10 24 10 40 0 13 -8 55 -13 106 -13 65 -1 89 3 103 15 10 9 24 16 32 16 8 0
19 4 25 9 5 4 30 14 56 21 26 7 55 21 64 31 9 11 23 19 30 19 8 0 28 9 46 20
18 11 42 20 53 20 18 0 20 -5 18 -32 -2 -18 0 -39 5 -46 5 -8 38 -20 73 -28
35 -7 89 -13 119 -13 30 0 75 4 100 10 25 6 64 11 87 10 26 0 56 -9 80 -24 22
-14 64 -27 98 -32 33 -4 67 -7 75 -7 8 0 62 3 120 6 58 4 129 11 158 16 28 6
77 15 108 22 37 8 61 19 74 35 10 14 16 31 13 39 -3 8 -8 14 -12 14 -4 0 -16
8 -27 19 -11 10 -30 22 -42 25 -15 5 -24 3 -28 -8 -3 -8 4 -25 16 -38 l21 -23
-38 -8 c-21 -5 -42 -10 -48 -11 -5 -2 -17 -6 -25 -9 -8 -3 -33 -8 -55 -12 -22
-3 -91 -8 -153 -11 -78 -4 -122 -2 -142 6 -17 7 -30 16 -30 20 0 4 19 13 43
20 23 7 59 29 80 49 20 19 37 43 37 52 0 10 -7 25 -16 33 -10 10 -33 16 -63
16 -30 0 -66 -9 -98 -24 -28 -14 -60 -37 -72 -53 -12 -15 -30 -38 -39 -51 -11
-15 -29 -24 -47 -25 -17 0 -83 0 -147 1 -99 2 -118 5 -118 17 0 9 9 33 20 55
11 21 48 69 84 105 39 41 66 63 70 56 4 -6 12 -11 17 -11 5 0 14 12 20 28 6
15 22 37 37 49 15 12 32 23 37 23 6 0 19 9 30 18 11 10 27 29 35 44 8 14 26
40 40 58 14 18 42 52 63 75 20 23 37 47 37 53 0 6 -3 13 -8 16 -4 2 -23 7 -42
10 -25 5 -46 1 -75 -14z m-905 -397 c0 -4 -12 -20 -27 -35 -15 -15 -35 -28
-45 -28 -9 0 -22 -9 -29 -21 -10 -20 -9 -21 32 -14 39 7 41 6 28 -10 -8 -10
-30 -35 -49 -55 -23 -24 -52 -42 -78 -50 -24 -6 -52 -8 -62 -5 -11 4 -20 10
-20 15 0 5 24 36 53 68 28 33 67 73 86 88 19 16 46 34 60 41 14 6 32 12 39 12
6 1 12 -2 12 -6z"/>
<path d="M6453 1203 c-4 -9 -1 -19 5 -21 7 -2 12 -13 12 -25 0 -12 4 -28 9
-36 8 -12 12 -12 24 -2 10 8 17 9 22 1 3 -5 15 -10 26 -10 11 0 24 11 30 24 7
14 9 36 5 49 -3 14 -16 27 -28 31 -13 3 -40 6 -61 6 -26 0 -40 -5 -44 -17z"/>
</g>
</svg>
